<?xml version="1.0" encoding="UTF-8"?>
<svg id="Layer_1" xmlns="http://www.w3.org/2000/svg" version="1.1" viewBox="0 0 417.93 392.55">
  <!-- Generator: Adobe Illustrator 29.7.1, SVG Export Plug-In . SVG Version: 2.1.1 Build 8)  -->
  <path d="M351.62,150.37l-7.21-1.64-.11-.02c-.8-.17-1.49-.35-2.05-.5-.69-.22-1.34-.45-1.94-.76-1.71-.8-3.13-2.05-4.14-3.63-2.24-3.39-2.31-7.77-.19-11.25.17-.28.35-.54.54-.8.09-.11.15-.19.24-.3.93-1.14,2.16-2.12,3.52-2.78.48-.22,1.14-.54,2.03-.78.52-.15,1.01-.26,1.45-.37l.52-.13c.06-.02.13-.02.17-.04l7.21-1.62c1.49-.35,2.89-.86,4.21-1.55-2.35-13.1-9.5-24.93-20.07-33.11-10.51,3.84-18.59,12.86-21.05,23.94l-2.61,11.61-.06.3c-.26,1.12-.5,2.09-.76,2.98-.26.89-.54,1.58-.76,2.09-.09.19-.17.39-.28.58-1.01,1.94-2.4,3.5-4.1,4.6-1.99,1.34-4.32,2.03-6.78,2.03s-4.81-.69-6.8-2.03c-1.71-1.1-3.09-2.65-4.1-4.6-.02-.04-.04-.06-.06-.11-.37-.76-.67-1.55-.95-2.48-.28-.93-.52-1.94-.82-3.28l-2.61-11.7c-2.81-12.48-12.71-22.36-25.23-25.19l-11.7-2.65-.15-.04c-1.1-.24-2.12-.47-3.04-.73-.91-.28-1.66-.56-2.42-.93-2.01-.95-3.65-2.37-4.84-4.23-2.65-4.01-2.72-9.15-.22-13.23.19-.32.39-.6.6-.88.09-.13.17-.26.28-.37,1.08-1.34,2.5-2.46,4.12-3.24.63-.3,1.45-.69,2.53-.97.71-.22,1.4-.39,2.09-.54.28-.06.6-.15.93-.22.04-.02.11-.04.17-.04l11.66-2.63c4.6-1.04,8.87-3.04,12.54-5.81l-49.93-28.82c-16.69-9.65-37.26-9.65-53.96,0l-108.29,62.51c-16.69,9.65-26.98,27.46-26.98,46.75v125.02c0,19.3,10.3,37.1,26.98,46.75l108.29,62.51c16.71,9.65,37.28,9.65,53.96,0l108.29-62.51c16.69-9.65,26.98-27.46,26.98-46.75v-106.39c-1.55-.93-3.28-1.62-5.09-2.03ZM261.85,275.41l-30.85,14.53h-1.62v-142.1c0-5.4-3.43-9.43-10.23-12.11-6.71-2.72-14.94-4.04-24.71-4.04s-17.98,1.34-24.8,4.04c-6.73,2.68-10.08,6.71-10.08,12.11v127.57l-30.85,14.53h-1.62v-147.75c0-14.42,10.12-25.51,30.37-33.28,10.92-4.17,23.27-6.26,37.02-6.26s26.07,2.09,37.02,6.26c20.23,7.77,30.35,18.87,30.35,33.28v133.22Z" fill="#7956ff" fill-rule="evenodd"/>
  <path d="M261.85,142.18v133.22l-30.85,14.53h-1.62v-142.1c0-5.4-3.43-9.43-10.23-12.11-6.71-2.72-14.94-4.04-24.71-4.04s-17.98,1.34-24.8,4.04c-6.73,2.68-10.08,6.71-10.08,12.11v127.57l-30.85,14.53h-1.62v-147.75c0-14.42,10.12-25.51,30.37-33.28,10.92-4.17,23.27-6.26,37.02-6.26s26.07,2.09,37.02,6.26c20.23,7.77,30.35,18.87,30.35,33.28Z" fill="#fff" fill-rule="evenodd"/>
  <path d="M355.79,77.11c-.43.67-1.01,1.19-1.81,1.55-.37.19-.76.35-1.27.5-.73.22-1.68.43-2.74.67l-11.68,2.65c-3.54.8-6.89,2.05-10.02,3.69-10.45,5.5-18.26,15.39-20.92,27.2l-2.59,11.57c-.28,1.19-.5,2.14-.71,2.87-.15.52-.32.93-.48,1.3-.41.78-.93,1.38-1.55,1.77-.8.56-1.71.8-2.63.8s-1.86-.24-2.65-.8c-.63-.39-1.14-.99-1.55-1.77-.17-.37-.32-.78-.47-1.3-.22-.71-.43-1.62-.67-2.72l-2.63-11.72c-3.45-15.33-15.58-27.43-30.93-30.89l-11.68-2.65c-1.06-.24-2.01-.45-2.74-.67-.52-.15-.91-.3-1.27-.5-.8-.37-1.38-.88-1.81-1.55-1.06-1.58-1.06-3.65,0-5.27,0-.04.04-.04.04-.06l.15-.17s.02-.04.02-.06c.41-.5.95-.93,1.6-1.23.37-.17.76-.37,1.27-.47.73-.26,1.68-.43,2.78-.71l11.63-2.61c6.73-1.51,12.89-4.71,17.92-9.13,6.43-5.61,11.07-13.19,13.02-21.78l2.63-11.74c.24-1.06.45-1.99.67-2.7.15-.5.3-.93.47-1.3.41-.76.93-1.36,1.55-1.79l.26-.15s.02-.04.04-.04c.73-.39,1.53-.6,2.33-.6.95,0,1.86.28,2.65.8.63.43,1.14,1.04,1.55,1.79.15.37.32.8.48,1.3.22.76.43,1.71.69,2.83l2.61,11.61c3.45,15.33,15.58,27.46,30.93,30.91l11.55,2.61c1.19.28,2.14.45,2.87.71.52.15.91.3,1.27.47.65.3,1.17.73,1.6,1.23,0,.02.02.02.02.06l.15.17s.04.09.06.13l.13.17c.91,1.64.82,3.54-.15,5.03Z" fill="#7956ff"/>
  <path d="M412.21,139.68c-.26.43-.63.76-1.12.97-.22.11-.47.22-.78.3-.45.13-1.04.26-1.71.41l-7.21,1.64c-9.5,2.14-16.99,9.63-19.12,19.1l-1.6,7.14c-.17.73-.3,1.32-.43,1.77-.11.32-.22.58-.3.8-.26.47-.56.86-.97,1.1-.5.35-1.06.5-1.62.5s-1.14-.15-1.64-.5c-.39-.24-.71-.63-.95-1.1-.13-.22-.22-.47-.3-.8-.13-.43-.28-.99-.43-1.68l-1.62-7.23c-1.86-8.31-7.86-15.09-15.69-18.07-1.1-.43-2.24-.78-3.41-1.04l-7.23-1.64c-.65-.15-1.23-.28-1.68-.41-.32-.09-.56-.19-.8-.3-.5-.22-.84-.54-1.1-.97-.67-.97-.67-2.24,0-3.26v-.02l.11-.13s.02,0,.02-.02c.24-.3.58-.58.97-.76.24-.13.47-.24.8-.3.45-.15,1.04-.26,1.71-.43l7.21-1.62c1.17-.26,2.29-.6,3.39-1.01,7.86-3,13.86-9.8,15.71-18.09l1.62-7.25c.15-.67.3-1.23.43-1.68.09-.3.17-.56.3-.8.24-.47.56-.84.95-1.1l.15-.11h.04c.45-.26.95-.39,1.42-.39.58,0,1.14.17,1.64.5.41.26.71.63.97,1.1.09.24.19.5.3.8.13.47.26,1.06.41,1.75l1.62,7.19c2.14,9.45,9.63,16.97,19.12,19.1l7.12,1.62c.76.17,1.34.28,1.79.43.3.09.56.17.78.3.41.17.71.45.99.76,0,.02.02.02.02.02l.09.13s.02.04.04.06l.06.11c.56,1.04.52,2.2-.09,3.11Z" fill="#7956ff"/>
</svg>